<svg xmlns="http://www.w3.org/2000/svg" viewBox="0 0 900 700" fill="none"><defs><linearGradient id="sky" x2="0" y2="1"><stop stop-color="#a9c2b2"/><stop offset="1" stop-color="#e9e8cc"/></linearGradient><linearGradient id="lake" x2="0" y2="1"><stop stop-color="#8ea99b"/><stop offset="1" stop-color="#537c6e"/></linearGradient><linearGradient id="land" x2="0" y2="1"><stop stop-color="#75835e"/><stop offset="1" stop-color="#344d35"/></linearGradient><pattern id="wood" width="18" height="18" patternUnits="userSpaceOnUse"><path d="M0 0V18" stroke="#663e2c" stroke-width="2"/></pattern></defs><path fill="url(#sky)" d="M0 0h900v700H0z"/><circle cx="658" cy="165" r="63" fill="#f2e9b7" opacity=".75"/><path d="M0 290L160 185l155 102 155-140 125 105 163-111 142 132v260H0" fill="#82988a"/><path d="M0 340l133-108 181 112 179-129 184 119 223-118v320H0" fill="#637e68"/><path d="M0 373q225-40 440 4t460-15v338H0" fill="url(#lake)"/><path d="M0 575q170-80 430-105t470 117v113H0" fill="url(#land)"/><path d="M0 515q210-68 392-36t508 6" stroke="#c8d4b0" stroke-width="5" opacity=".5"/><path d="M450 576l268 124h88L489 556" fill="#bbb297"/><path d="M0 619q120-50 310-52l67 133H0" fill="#4c603c"/><g fill="#2f503b"><path d="M105 100L24 352h162z"/><path d="M101 183L7 435h192z"/><path d="M769 45l-91 279h185z"/><path d="M774 153L664 437h213z"/><path d="M850 201l-67 220h133z"/><path d="M239 223l-62 199h126z"/></g><g fill="#213e2b"><path d="M139 245L49 535h181z"/><path d="M139 363L24 648h230z"/><path d="M23 335l-80 223h161z"/></g><g stroke="#3d4831" stroke-width="13"><path d="M110 329v231M775 310v232M242 363v128"/></g><path d="M309 378l202-57 123 77v190l-122 51-203-75z" fill="#a56749"/><path d="M309 378l202-57v318l-203-75z" fill="#98533b"/><path d="M309 378l202-57v318l-203-75z" fill="url(#wood)" opacity=".6"/><path d="M284 381l224-147 156 161-153-50-190 65z" fill="#334038"/><path d="M284 381l224-147 3 111-190 65z" fill="#444d3d"/><path d="M508 234l156 161-153-50z" fill="#242e2a"/><path d="M356 420l70-13v92l-70 3z" fill="#f0d69a"/><path d="M391 414v86M356 456l70-10" stroke="#665a3e" stroke-width="5"/><path d="M455 411l34-9v171l-34-12z" fill="#3d493b"/><circle cx="480" cy="489" r="3" fill="#e5c585"/><path d="M543 414l56 17v86l-56-13z" fill="#d9cd92"/><path d="M571 422v89M543 461l56 13" stroke="#665a3e" stroke-width="5"/><path d="M306 565l204 76 128-50v12l-128 54-204-76z" fill="#c0a784"/><path d="M532 290v-75l32 7v100" fill="#727469"/><g stroke="#cbd3b2" stroke-width="2" opacity=".5"><path d="M35 470h165M672 472h157M576 529h100M171 507h90M725 557h120"/></g><g fill="#9aab6c"><circle cx="683" cy="597" r="35"/><circle cx="718" cy="614" r="46"/><circle cx="269" cy="594" r="28"/><circle cx="298" cy="609" r="25"/></g><g fill="#b0bd86"><circle cx="659" cy="619" r="26"/><circle cx="738" cy="636" r="21"/></g></svg>
